<svg width="24" height="24" viewBox="0 0 24 24" fill="none" xmlns="http://www.w3.org/2000/svg">
<path fill-rule="evenodd" clip-rule="evenodd" d="M5.96952 5.51603C7.36998 4.41048 9.45805 3.75 12 3.75C12.4771 3.75 12.9397 3.77336 13.3857 3.8189C14.0038 3.882 14.5561 3.43209 14.6192 2.81398C14.6823 2.19588 14.2324 1.64364 13.6143 1.58053C13.0893 1.52694 12.5504 1.5 12 1.5C9.10022 1.5 6.47533 2.25014 4.57538 3.75C2.67542 5.24987 1.5 7.49978 1.5 10.5C1.5 13.6757 2.81692 16.0108 4.9162 17.5056L4.73071 19.7315C4.60652 21.2218 5.78262 22.5 7.27812 22.5C7.90418 22.5 8.50847 22.2703 8.97639 21.8543L11.6296 19.4959C11.7526 19.4986 11.876 19.5 12 19.5C14.8998 19.5 17.5247 18.7499 19.4246 17.25C21.3246 15.7501 22.5 13.5002 22.5 10.5C22.5 9.87868 21.9963 9.375 21.375 9.375C20.7537 9.375 20.25 9.87868 20.25 10.5C20.25 12.8449 19.3643 14.431 18.0305 15.484C16.63 16.5895 14.542 17.25 12 17.25C11.8926 17.25 11.7859 17.2488 11.6798 17.2464L11.2378 17.2366L10.7957 17.2267L10.4653 17.5205L7.48158 20.1726C7.42552 20.2225 7.35312 20.25 7.27812 20.25C7.09896 20.25 6.95806 20.0969 6.97294 19.9183L7.21163 17.0541L7.26482 16.4158L6.74304 16.0442L6.22126 15.6727C4.73376 14.6135 3.75 12.9714 3.75 10.5C3.75 8.15506 4.63572 6.56896 5.96952 5.51603Z" fill="white"/>
<path d="M18.75 8.25C20.4069 8.25 21.75 6.90685 21.75 5.25C21.75 3.59315 20.4069 2.25 18.75 2.25C17.0931 2.25 15.75 3.59315 15.75 5.25C15.75 6.90685 17.0931 8.25 18.75 8.25Z" fill="#E0FF4F"/>
</svg>
