<svg width="174" height="39" viewBox="0 0 174 39" fill="none" xmlns="http://www.w3.org/2000/svg">
<path d="M96.7207 10.8999C98.2607 10.7299 99.7807 10.5599 101.321 10.3799V13.0099C101.321 13.0099 101.361 13.0399 101.381 13.0499C102.041 11.4199 103.231 10.4899 104.981 10.3999C106.691 10.3099 108.061 11.0099 109.071 12.3599C109.281 12.1699 109.471 11.9899 109.681 11.8099C111.001 10.6699 112.541 10.2799 114.251 10.4099C115.031 10.4699 115.791 10.6299 116.511 10.9799C117.811 11.6199 118.541 12.7199 118.971 14.0499C119.321 15.1199 119.471 16.2199 119.481 17.3299C119.501 20.6399 119.491 23.9399 119.491 27.2499C119.491 27.3199 119.491 27.3799 119.481 27.4599C117.791 27.6299 116.111 27.7999 114.401 27.9799V27.6299C114.401 24.3199 114.401 21.0199 114.401 17.7099C114.401 17.1699 114.381 16.6399 114.191 16.1299C113.961 15.4999 113.541 15.0799 112.861 14.9699C112.131 14.8599 111.571 15.1599 111.161 15.7599C110.821 16.2599 110.661 16.8199 110.661 17.4099C110.661 20.6499 110.661 23.8799 110.661 27.1199C110.661 27.2199 110.661 27.3199 110.661 27.4399C108.961 27.6099 107.281 27.7899 105.561 27.9599C105.561 27.8499 105.561 27.7499 105.561 27.6599C105.561 24.3299 105.561 20.9999 105.561 17.6699C105.561 17.1699 105.481 16.6499 105.361 16.1699C105.191 15.5099 104.741 15.0799 104.051 14.9699C103.321 14.8499 102.761 15.1499 102.351 15.7499C101.941 16.3399 101.821 17.0099 101.821 17.7099C101.821 20.8399 101.821 23.9599 101.821 27.0899C101.821 27.1999 101.821 27.3099 101.821 27.4499C100.131 27.6199 98.4507 27.7999 96.7607 27.9699V10.8999H96.7207Z" fill="#0063A4"/>
<path d="M17.25 9.72997C16.93 11.11 16.62 12.44 16.32 13.77C16.29 13.9 16.24 13.94 16.1 13.96C15.64 14 15.18 14.05 14.64 14.11C15.71 15.48 16.05 17 15.82 18.65C15.58 20.35 14.64 21.55 13.15 22.37C13.55 22.68 13.96 22.97 14.34 23.29C15.55 24.29 16.11 25.59 16.18 27.14C16.29 29.42 15.24 31.05 13.35 32.22C12.01 33.05 10.54 33.47 8.99 33.65C6.97 33.89 5.01 33.67 3.13 32.87C1.98 32.38 0.98 31.68 0.11 30.79C0.08 30.75 0.04 30.72 0 30.67C0.97 29.65 1.92 28.64 2.89 27.62C3.18 27.86 3.45 28.1 3.74 28.31C5.44 29.54 7.3 29.83 9.29 29.14C10.06 28.87 10.68 28.4 10.95 27.6C11.36 26.43 10.94 25.09 9.49 24.45C8.59 24.06 7.65 24 6.69 24.07C5.62 24.14 4.6 24.41 3.59 24.73C3.54 24.74 3.49 24.75 3.4 24.77C3.53 24.24 3.65 23.75 3.77 23.27C3.33 22.97 2.88 22.71 2.49 22.38C0.8 20.96 -0.05 19.19 0.18 16.97C0.52 13.62 2.86 11.12 6.18 10.52C7.29 10.32 8.4 10.36 9.5 10.54C11.5 10.86 13.47 10.76 15.42 10.19C16.01 10.02 16.61 9.87997 17.25 9.71997V9.72997ZM11.07 17.69C11.07 16.01 9.68 14.63 7.98 14.62C6.33 14.62 4.94 16.02 4.93 17.68C4.93 19.39 6.32 20.79 8.01 20.79C9.69 20.79 11.06 19.4 11.06 17.69H11.07Z" fill="#0063A4"/>
<path d="M150.97 22.36C151.46 22.76 151.96 23.12 152.41 23.53C153.46 24.5 153.92 25.73 153.99 27.14C154.1 29.42 153.04 31.05 151.16 32.22C149.82 33.05 148.35 33.47 146.8 33.65C144.78 33.89 142.82 33.66 140.94 32.87C139.8 32.39 138.57 31.53 137.82 30.67C138.78 29.66 139.74 28.64 140.71 27.62C141 27.86 141.27 28.1 141.56 28.31C143.26 29.54 145.12 29.84 147.11 29.14C147.97 28.84 148.63 28.29 148.84 27.36C149.13 26.1 148.53 25 147.3 24.46C146.4 24.07 145.46 24.02 144.5 24.08C143.44 24.15 142.43 24.42 141.42 24.73C141.37 24.75 141.31 24.76 141.21 24.78C141.34 24.25 141.46 23.75 141.58 23.28C141.14 22.98 140.69 22.72 140.3 22.39C138.64 20.97 137.79 19.2 138.01 16.98C138.34 13.63 140.68 11.13 144.01 10.53C145.12 10.33 146.23 10.37 147.33 10.55C149.32 10.87 151.29 10.77 153.23 10.21C153.76 10.06 154.3 9.92999 154.83 9.78999C154.9 9.76999 154.97 9.75999 155.08 9.73999C154.91 10.46 154.76 11.15 154.6 11.84C154.45 12.47 154.3 13.09 154.16 13.72C154.13 13.87 154.08 13.94 153.9 13.95C153.45 13.98 152.99 14.04 152.47 14.1C153.54 15.47 153.88 17 153.64 18.65C153.4 20.35 152.45 21.55 150.98 22.36H150.97ZM148.89 17.69C148.89 16.01 147.5 14.62 145.81 14.62C144.16 14.62 142.76 16.02 142.76 17.68C142.76 19.39 144.14 20.79 145.84 20.79C147.52 20.79 148.9 19.4 148.9 17.7L148.89 17.69Z" fill="#0063A4"/>
<path d="M35.351 15.53C33.541 16.69 31.751 17.84 29.961 18.99C28.171 20.14 26.371 21.29 24.561 22.45C24.891 22.92 25.331 23.21 25.841 23.39C27.011 23.82 28.181 23.69 29.331 23.31C30.281 22.99 31.131 22.48 31.931 21.88C32.001 21.83 32.071 21.78 32.161 21.71C33.051 23.01 33.931 24.29 34.831 25.61C34.561 25.79 34.301 25.97 34.031 26.14C32.431 27.14 30.711 27.82 28.831 28.11C23.811 28.88 19.841 25.81 18.551 21.95C17.831 19.81 18.061 17.7 18.991 15.69C20.181 13.11 22.131 11.33 24.931 10.65C27.761 9.95 30.351 10.62 32.671 12.33C33.771 13.14 34.631 14.18 35.271 15.39C35.291 15.43 35.311 15.48 35.341 15.53H35.351ZM29.231 15.31C28.471 14.5 26.531 14.38 25.301 15.03C23.591 15.93 22.881 17.94 23.091 19.4C25.141 18.04 27.181 16.68 29.241 15.31H29.231Z" fill="#0063A4"/>
<path d="M173.171 15.5301C169.571 17.8401 165.981 20.1301 162.381 22.4401C162.721 22.9101 163.161 23.2001 163.661 23.3801C164.831 23.8101 166.001 23.6801 167.151 23.2901C168.101 22.9701 168.951 22.4601 169.751 21.8601C169.821 21.8101 169.891 21.7601 169.981 21.7001C170.871 23.0001 171.751 24.2801 172.651 25.6001C172.331 25.8101 172.031 26.0201 171.711 26.2101C170.151 27.1601 168.481 27.8101 166.671 28.0901C161.351 28.9201 157.121 25.3901 156.151 21.1401C155.721 19.2601 155.991 17.4401 156.791 15.7001C158.001 13.0801 159.961 11.2801 162.801 10.6001C165.621 9.93009 168.191 10.5901 170.491 12.3001C171.641 13.1501 172.541 14.2601 173.161 15.5101L173.171 15.5301ZM160.881 19.4101C162.961 18.0301 165.001 16.6701 167.051 15.3001C166.341 14.5401 164.601 14.3801 163.321 14.9201C161.741 15.6001 160.741 17.4101 160.871 19.4001L160.881 19.4101Z" fill="#0063A4"/>
<path d="M131.1 17.87C131.14 17.17 131.16 16.5 130.87 15.86C130.54 15.12 129.91 14.82 129.16 14.71C127.28 14.43 125.49 14.77 123.76 15.48C123.67 15.51 123.59 15.55 123.46 15.61C123.52 15.2 123.58 14.83 123.64 14.47C123.8 13.44 123.97 12.41 124.13 11.38C124.16 11.2 124.22 11.1 124.41 11.05C126.26 10.51 128.15 10.25 130.07 10.44C131.45 10.57 132.76 10.91 133.89 11.77C135 12.62 135.59 13.77 135.77 15.14C135.82 15.56 135.83 15.99 135.83 16.41C135.83 19.97 135.83 23.53 135.83 27.09C135.83 27.2 135.83 27.31 135.83 27.44C134.35 27.61 132.88 27.79 131.39 27.96V26.25C131.3 26.35 131.26 26.39 131.22 26.44C130.45 27.52 129.37 28.04 128.07 28.17C127.07 28.27 126.08 28.23 125.12 27.93C123.48 27.44 122.34 26.39 121.75 24.79C121.24 23.4 121.11 21.95 121.55 20.52C122.1 18.73 123.35 17.59 125.09 17.01C127.16 16.32 129.11 16.62 130.93 17.8C130.96 17.82 130.99 17.84 131.02 17.85C131.03 17.85 131.05 17.85 131.11 17.87H131.1ZM128.57 24.35C128.95 24.26 129.36 24.22 129.72 24.08C130.57 23.75 131.05 23.11 131.08 22.18C131.11 21.32 130.75 20.65 129.99 20.26C129 19.75 127.99 19.75 127.02 20.31C125.87 20.98 125.67 22.62 126.6 23.56C127.13 24.1 127.81 24.29 128.56 24.35H128.57Z" fill="#0063A4"/>
<path d="M47.2702 26.24C47.2302 25.68 47.2002 25.11 47.2002 24.54C47.2002 11.49 57.7802 0.91 70.8302 0.91C75.2602 0.91 79.4102 2.13 82.9502 4.26C78.5002 1.55 73.2702 0 67.6802 0C51.4202 0 38.2402 13.18 38.2402 29.44C38.2402 30.13 38.2702 30.81 38.3202 31.48L47.2702 26.25V26.24Z" fill="#0063A4"/>
<path d="M83.6409 12.0701C83.6809 12.6301 83.7109 13.2001 83.7109 13.7701C83.7109 26.8201 73.1309 37.4001 60.0809 37.4001C55.6509 37.4001 51.5009 36.1801 47.9609 34.0501C52.4109 36.7601 57.6409 38.3101 63.2309 38.3101C79.4909 38.3101 92.6709 25.1301 92.6709 8.87008C92.6709 8.18008 92.6409 7.50008 92.5909 6.83008L83.6409 12.0601V12.0701Z" fill="#0063A4"/>
<path d="M65.3299 6.65991C58.4799 6.65991 52.9199 12.2199 52.9199 19.0699C52.9199 25.9199 58.4799 31.4799 65.3299 31.4799C72.1799 31.4799 77.7399 25.9199 77.7399 19.0699C77.7399 12.2199 72.1799 6.65991 65.3299 6.65991ZM76.2799 19.9099C75.6699 20.1299 74.6299 20.5299 73.2899 21.0699C73.0399 19.5999 72.5899 18.0599 71.9299 16.5199L75.4899 14.8799C76.0199 16.1699 76.3199 17.5899 76.3199 19.0699C76.3199 19.3499 76.2999 19.6299 76.2799 19.9099ZM54.3399 19.0699C54.3399 18.8599 54.3599 18.6599 54.3699 18.4499C54.9199 18.2399 55.9999 17.8199 57.3899 17.2399C57.6199 18.4999 57.9999 19.8099 58.5299 21.1299L54.9899 22.7599C54.5699 21.5999 54.3399 20.3599 54.3399 19.0599V19.0699ZM58.7299 16.6799C59.9899 16.1399 61.4199 15.4999 62.8899 14.7899L64.5099 18.3799L59.8199 20.5399C59.2799 19.1899 58.9199 17.8899 58.7299 16.6799ZM67.7199 12.3099C68.5499 13.2799 69.3499 14.4499 70.0499 15.8299L65.7999 17.7899L64.1699 14.1799C65.4499 13.5399 66.6499 12.9099 67.7199 12.3199V12.3099ZM63.5799 12.8799L61.7799 8.87991C61.8599 8.87991 61.9499 8.84991 62.0299 8.84991C63.3599 8.84991 65.0599 9.65991 66.7099 11.2399C65.7499 11.7599 64.6899 12.3199 63.5799 12.8799ZM60.4299 9.32991L62.3099 13.4999C60.9899 14.1299 59.7099 14.7099 58.5499 15.2099C58.3699 12.3999 59.1199 10.2299 60.4299 9.32991ZM65.0899 19.6699L66.9599 23.8299C65.5199 24.5199 64.1599 25.2099 62.9599 25.8499C62.0299 24.7599 61.1399 23.4199 60.3799 21.8299L65.0799 19.6599L65.0899 19.6699ZM67.5499 25.1199L69.3799 29.1799C69.1399 29.2399 68.8999 29.2799 68.6399 29.2799C67.3199 29.2799 65.6299 28.4799 63.9899 26.9199C65.0699 26.3499 66.2799 25.7299 67.5599 25.1199H67.5499ZM72.0699 24.8399C71.9699 25.8599 71.6399 27.4999 70.6099 28.4799L68.8299 24.5199C69.9799 23.9899 71.0799 23.5099 72.0999 23.0899C72.1299 23.6899 72.1199 24.2799 72.0699 24.8399ZM68.2499 23.2299L66.3799 19.0799L70.6499 17.1099C71.2999 18.6199 71.7399 20.1499 71.9599 21.6199C70.8299 22.0899 69.5699 22.6399 68.2599 23.2399L68.2499 23.2299ZM74.8599 13.6099L71.3399 15.2299C70.6499 13.8699 69.8499 12.6599 68.9799 11.6099C70.1299 10.9599 71.0399 10.4199 71.6199 10.0599C72.9499 10.9899 74.0499 12.1999 74.8599 13.6099ZM70.2299 9.23991C69.6499 9.58991 68.8899 10.0299 68.0099 10.5299C66.9599 9.45991 65.8399 8.63991 64.7299 8.10991C64.9299 8.09991 65.1299 8.07991 65.3299 8.07991C67.0899 8.07991 68.7499 8.50991 70.2299 9.24991V9.23991ZM57.5199 11.3399C57.1499 12.6199 57.0499 14.1399 57.1999 15.7799C56.1199 16.2299 55.2099 16.5999 54.5599 16.8499C54.9999 14.7299 56.0499 12.8199 57.5199 11.3399ZM55.5499 24.0599L59.0999 22.4299C59.8399 23.9799 60.7299 25.3699 61.6999 26.5399C60.5299 27.1899 59.5999 27.7199 59.0299 28.0599C57.5699 27.0299 56.3699 25.6599 55.5499 24.0599ZM60.4199 28.8799C61.0099 28.5399 61.7699 28.1099 62.6699 27.6099C63.7199 28.6699 64.8299 29.4899 65.9299 30.0099C65.7299 30.0199 65.5299 30.0399 65.3299 30.0399C63.5699 30.0399 61.8999 29.6099 60.4299 28.8699L60.4199 28.8799ZM73.1299 26.7799C73.4899 25.5499 73.5999 24.0899 73.4699 22.5099C74.4999 22.0899 75.3699 21.7499 76.0299 21.4999C75.5699 23.5299 74.5499 25.3499 73.1299 26.7799Z" fill="#0063A4"/>
</svg>
