<svg width="204" height="40" viewBox="0 0 204 40" fill="none" xmlns="http://www.w3.org/2000/svg">
<g clip-path="url(#clip0_5965_3207)">
<path d="M194.062 32.634C193.226 32.634 192.4 32.4758 191.586 32.1591C190.795 31.8201 190.037 31.3228 189.314 30.6671C188.59 30.0113 188.002 29.1066 187.55 27.9537C187.12 26.7778 186.906 25.4437 186.906 23.9513C186.906 21.1246 187.607 18.988 189.008 17.5412C190.41 16.0712 192.061 15.3365 193.961 15.3365C196.018 15.3365 197.669 16.2405 198.913 18.0496H198.946V7.90862H203.084V32.1594H198.98V29.955H198.946C198.494 30.7008 197.85 31.334 197.013 31.8541C196.177 32.3743 195.193 32.634 194.062 32.634ZM195.012 29.2426C196.21 29.2426 197.171 28.7562 197.895 27.784C198.641 26.8118 199.014 25.5229 199.014 23.9173C199.014 22.2215 198.652 20.9441 197.929 20.0849C197.228 19.2029 196.267 18.762 195.046 18.762C193.847 18.762 192.886 19.1917 192.163 20.0509C191.462 20.8874 191.111 22.1875 191.111 23.9513C191.111 25.6022 191.473 26.9022 192.197 27.8518C192.943 28.7788 193.881 29.2426 195.012 29.2426ZM180.508 32.1594V7.9083H184.68V32.1594H180.508ZM170.663 32.7021C168.356 32.7021 166.412 31.9671 164.829 30.4977C163.246 29.0277 162.455 26.8796 162.455 24.0532C162.455 21.3398 163.223 19.2029 164.761 17.6431C166.298 16.06 168.221 15.2683 170.527 15.2683C173.059 15.2683 174.97 15.9808 176.259 17.4053C177.57 18.8072 178.226 20.8311 178.226 23.4764V25.0706H166.694C166.762 26.2691 167.169 27.2753 167.915 28.0893C168.684 28.8806 169.657 29.2763 170.832 29.2763C172.709 29.2763 173.975 28.3723 174.631 26.5629L177.921 28.1908C177.356 29.5478 176.451 30.6442 175.208 31.481C173.964 32.295 172.449 32.7021 170.663 32.7021ZM166.83 22.2556H173.953C173.817 19.6552 172.664 18.3552 170.493 18.3552C169.408 18.3552 168.548 18.7056 167.915 19.4066C167.305 20.1075 166.943 21.0571 166.83 22.2556ZM144.836 32.1591V19.1688H141.547V15.8448H144.836V12.9958C144.836 9.28761 146.566 7.43335 150.026 7.43335C151.021 7.43335 151.993 7.59156 152.943 7.9083L152.264 11.3338C151.563 11.1307 150.975 11.0289 150.501 11.0289C149.438 11.0289 148.907 11.6843 148.907 12.9958V15.8448H159.76V32.1591H155.588V19.1688H148.974V32.1594L144.836 32.1591ZM157.691 13.6067C156.877 13.6067 156.21 13.3689 155.69 12.8943C155.17 12.3964 154.91 11.7862 154.91 11.0626C154.91 10.339 155.17 9.72849 155.69 9.23094C156.21 8.73372 156.877 8.48478 157.691 8.48478C158.482 8.48478 159.138 8.73372 159.658 9.23094C160.179 9.72882 160.439 10.339 160.439 11.0626C160.439 11.7865 160.179 12.3967 159.658 12.8943C159.138 13.3692 158.482 13.6067 157.691 13.6067ZM133.883 32.7021C131.87 32.7021 130.22 32.2839 128.931 31.447C127.642 30.5878 126.839 29.4008 126.523 27.8859L130.389 26.7666C130.842 28.6661 132.063 29.6156 134.053 29.6156C135.793 29.6156 136.664 28.9936 136.664 27.7503C136.664 27.1397 136.381 26.6648 135.816 26.3254C135.273 25.9638 134.233 25.6245 132.696 25.308C128.942 24.5393 127.066 22.8776 127.066 20.3221C127.066 18.762 127.642 17.5297 128.795 16.6254C129.971 15.7207 131.565 15.2687 133.578 15.2687C135.341 15.2687 136.845 15.6417 138.089 16.3879C139.355 17.1115 140.248 18.1403 140.768 19.4744L137.037 20.797C136.766 20.0735 136.314 19.4855 135.68 19.0335C135.07 18.5586 134.335 18.3211 133.476 18.3211C132.752 18.3211 132.176 18.4793 131.746 18.796C131.339 19.0898 131.135 19.497 131.135 20.0168C131.135 20.5596 131.407 21.0119 131.95 21.3735C132.492 21.7129 133.544 22.0407 135.104 22.3572C137.071 22.7643 138.507 23.3748 139.411 24.1888C140.316 24.9802 140.768 26.0427 140.768 27.3772C140.768 29.0277 140.146 30.3277 138.903 31.2776C137.681 32.2275 136.008 32.7021 133.883 32.7021ZM117.2 39.4854C114.736 39.4854 112.791 39.1123 111.366 38.3658C109.965 37.6196 109.264 36.5682 109.264 35.2115C109.264 34.3975 109.535 33.6514 110.078 32.973C110.62 32.3173 111.31 31.8086 112.147 31.4466V31.3788C110.632 30.859 109.874 29.9884 109.874 28.7673C109.874 28.0663 110.168 27.4558 110.756 26.936C111.344 26.3932 112.067 26.0539 112.927 25.9183V25.8505C110.937 24.7424 109.942 23.1823 109.942 21.1698C109.942 19.4289 110.62 18.0155 111.977 16.9303C113.356 15.8448 115.131 15.3024 117.302 15.3024H119.066C120.128 15.3024 120.807 15.0646 121.101 14.59C121.417 14.115 121.576 13.267 121.576 12.0462H125.68V13.267C125.68 14.2395 125.295 14.9857 124.526 15.5058C123.758 16.003 122.74 16.252 121.474 16.252V16.3198C123.464 17.4049 124.459 19.0443 124.459 21.2376C124.459 23.0466 123.769 24.46 122.39 25.4774C121.033 26.4722 119.213 26.9697 116.929 26.9697C116.545 26.9697 116.16 26.9586 115.776 26.936C115.391 26.913 115.109 26.913 114.928 26.936C114.657 26.936 114.419 27.0375 114.216 27.2409C114.012 27.4447 113.91 27.6821 113.91 27.9533C113.91 28.2697 114.046 28.5187 114.317 28.6995C114.611 28.8803 115.007 28.9707 115.504 28.9707H120.694C122.548 28.9707 123.961 29.3667 124.934 30.1581C125.928 30.9268 126.426 32.0349 126.426 33.482C126.426 35.3586 125.612 36.8283 123.984 37.8912C122.356 38.9538 120.095 39.4854 117.2 39.4854ZM117.506 36.6023C120.716 36.6023 122.322 35.7431 122.322 34.0245C122.322 32.8037 121.429 32.2043 119.642 32.2269L115.233 32.3284C114.69 32.3513 114.227 32.5662 113.842 32.973C113.481 33.3802 113.3 33.8548 113.3 34.3975C113.3 35.8673 114.702 36.6023 117.506 36.6023ZM117.302 24.3241C119.337 24.3241 120.355 23.2841 120.355 21.2039C120.355 20.1636 120.072 19.3611 119.507 18.7957C118.964 18.2304 118.195 17.9477 117.2 17.9477C116.205 17.9477 115.437 18.2304 114.894 18.7957C114.351 19.3385 114.08 20.1072 114.08 21.102C114.08 22.1197 114.363 22.911 114.928 23.4764C115.493 24.0414 116.285 24.3241 117.302 24.3241ZM98.5852 39.4854C96.1204 39.4854 94.1757 39.1123 92.7512 38.3658C91.3493 37.6196 90.6483 36.5682 90.6483 35.2115C90.6483 34.3975 90.9199 33.6514 91.4623 32.973C92.005 32.3173 92.6949 31.8086 93.5314 31.4466V31.3788C92.0165 30.859 91.2589 29.9884 91.2589 28.7673C91.2589 28.0663 91.553 27.4558 92.1406 26.936C92.7286 26.3932 93.4522 26.0539 94.3116 25.9183V25.8505C92.3218 24.7424 91.3267 23.1823 91.3267 21.1698C91.3267 19.4289 92.005 18.0155 93.3618 16.9303C94.7411 15.8448 96.516 15.3024 98.6867 15.3024H100.451C101.513 15.3024 102.192 15.0646 102.486 14.59C102.802 14.115 102.96 13.267 102.96 12.0462H107.064V13.267C107.064 14.2395 106.68 14.9857 105.911 15.5058C105.142 16.003 104.125 16.252 102.859 16.252V16.3198C104.849 17.4049 105.843 19.0443 105.843 21.2376C105.843 23.0466 105.154 24.46 103.775 25.4774C102.418 26.4722 100.598 26.9697 98.3136 26.9697C97.9294 26.9697 97.5449 26.9586 97.1607 26.936C96.7761 26.913 96.4935 26.913 96.3126 26.936C96.0414 26.936 95.804 27.0375 95.6002 27.2409C95.3968 27.4447 95.295 27.6821 95.295 27.9533C95.295 28.2697 95.4309 28.5187 95.7021 28.6995C95.9959 28.8803 96.3919 28.9707 96.8891 28.9707H102.078C103.933 28.9707 105.346 29.3667 106.318 30.1581C107.313 30.9268 107.811 32.0349 107.811 33.482C107.811 35.3586 106.997 36.8283 105.368 37.8912C103.74 38.9538 101.479 39.4854 98.5852 39.4854ZM98.8905 36.6023C102.101 36.6023 103.707 35.7431 103.707 34.0245C103.707 32.8037 102.814 32.2043 101.027 32.2269L96.6179 32.3284C96.0752 32.3513 95.6117 32.5662 95.2271 32.973C94.8655 33.3802 94.6847 33.8548 94.6847 34.3975C94.6847 35.8673 96.0866 36.6023 98.8905 36.6023ZM98.6867 24.3241C100.722 24.3241 101.739 23.2841 101.739 21.2039C101.739 20.1636 101.457 19.3611 100.891 18.7957C100.349 18.2304 99.5799 17.9477 98.5852 17.9477C97.5901 17.9477 96.8213 18.2304 96.2786 18.7957C95.7362 19.3385 95.4646 20.1072 95.4646 21.102C95.4646 22.1197 95.7473 22.911 96.3126 23.4764C96.878 24.0414 97.6693 24.3241 98.6867 24.3241ZM83.9237 32.1594V15.8448H88.0954V32.1591L83.9237 32.1594ZM86.0266 13.6063C85.2126 13.6063 84.5454 13.3692 84.0253 12.8943C83.5055 12.3967 83.2454 11.7862 83.2454 11.0626C83.2454 10.339 83.5055 9.72849 84.0253 9.23127C84.5454 8.73339 85.2126 8.48478 86.0266 8.48478C86.818 8.48478 87.4737 8.73372 87.9939 9.23127C88.5137 9.72849 88.7738 10.339 88.7738 11.0626C88.7738 11.7865 88.5137 12.3967 87.9939 12.8943C87.4737 13.3692 86.818 13.6063 86.0266 13.6063ZM60.5996 32.1594V7.9083H64.9409V17.7105H76.0321V7.90862H80.3734V32.1594H76.0321V21.7129H64.9409V32.1594H60.5996Z" fill="#050505"/>
<mask id="mask0_5965_3207" style="mask-type:alpha" maskUnits="userSpaceOnUse" x="0" y="0" width="39" height="40">
<path d="M38.8243 30.1985V10.1721C38.8243 5.02957 34.6546 0.859863 29.5088 0.859863H9.48606C4.34353 0.859863 0.173828 5.02957 0.173828 10.1721V30.1952C0.173828 35.3377 4.34353 39.5074 9.48606 39.5074H29.5092C34.655 39.5107 38.8243 35.341 38.8243 30.1985Z" fill="#B8CADD"/>
</mask>
<g mask="url(#mask0_5965_3207)">
<path d="M-1.64648 -1.10522H45.5206V44.0966H-1.64648V-1.10522Z" fill="#B8CADD"/>
<path d="M-0.332031 12.5696C0.542526 12.9855 1.36795 13.2148 1.90513 13.2705C4.60086 13.5457 5.75711 13.0183 7.53898 11.79C8.54783 11.1382 9.85803 9.48732 10.2707 8.98944C11.7054 7.53512 13.2744 6.87347 13.9164 7.60063C14.5551 8.33107 14.0474 10.2145 12.3048 11.6852C11.9478 11.9865 11.3517 12.3829 10.6245 12.8644C7.79774 14.7347 2.99915 17.9119 2.61591 21.9801C2.32439 25.0688 4.01455 27.9447 6.3205 29.0256C8.62644 30.1066 10.7588 29.743 12.3048 29.0256C13.8509 28.3083 16.3075 26.1596 18.5872 23.3558C18.9672 22.8906 19.3537 22.396 19.7467 21.8949C21.9315 19.1173 24.3062 16.0973 26.4943 16.0973C29.8418 16.0973 30.5428 18.0724 30.5297 20.018C22.8126 21.3708 19.0327 28.1445 19.0327 31.6231C19.0327 35.105 21.9872 37.9907 25.623 37.9907C29.7861 37.9907 34.9221 34.5743 35.7443 24.8068H38.9313V19.6905H35.7246C35.4167 16.3134 33.1894 10.2178 27.1559 10.2178C22.8126 10.2178 19.3144 14.4464 17.6144 16.5034C17.5063 16.6344 17.4048 16.7556 17.3131 16.867C16.1634 18.4032 13.0844 21.9866 12.6127 22.4779C12.0592 23.0904 11.0045 23.6997 10.274 23.6178C9.54358 23.5359 8.05978 22.8808 8.54456 20.8402C8.84918 19.5529 10.7621 18.2362 12.6913 16.9063C13.8279 16.1235 14.9678 15.3373 15.79 14.5512C18.014 12.4222 19.3537 10.7582 19.3537 7.97404C19.3537 3.52919 15.7015 2.37622 13.9131 2.37622C11.201 2.37622 10.1037 3.01822 8.45939 4.42013C7.70931 5.05885 7.17213 5.7074 6.6677 6.31664C6.44169 6.59178 6.20258 6.89968 6.00277 7.09948L5.9864 7.11586C4.1816 8.8617 2.44231 8.47847 1.0273 8.15747L-0.230491 7.81027L-0.332031 12.5696ZM25.8948 32.8547C25.243 32.8547 24.3357 32.311 24.3357 31.3447C24.3357 30.0836 26.3763 26.058 30.8572 24.8821C30.248 30.5291 27.3655 32.8547 25.8948 32.8547Z" fill="#050505"/>
</g>
</g>
<defs>
<clipPath id="clip0_5965_3207">
<rect width="203.408" height="38.6508" fill="white" transform="translate(0 0.859375)"/>
</clipPath>
</defs>
</svg>
