<svg width="224" height="49" viewBox="0 0 224 49" fill="none" xmlns="http://www.w3.org/2000/svg">
<g clip-path="url(#clip0_5965_3268)">
<path d="M64.7489 30.5419C64.7489 31.1756 64.6148 31.7348 64.3464 32.2269C64.0779 32.719 63.7052 33.0992 63.213 33.3676C62.721 33.636 62.1692 33.7703 61.5354 33.7703H58.3965V38.3408H62.199C63.6306 38.3408 64.913 38.0202 66.0537 37.379C67.1945 36.7378 68.0892 35.8505 68.7379 34.7246C69.3865 33.5988 69.7146 32.3312 69.7146 30.9147V15.8909H64.7489V30.5419ZM78.1178 29.1774H88.5184V24.9797H78.1178V20.2153H89.6145V15.8909H73.2786V38.3333H89.9349V34.0089H78.1178V29.1774ZM91.4938 20.3421H98.1439V38.3259H103.11V20.3421H109.73V15.8909H91.4863V20.3496L91.4938 20.3421ZM126.7 27.0822C126.313 26.8735 125.888 26.7169 125.448 26.5977C125.784 26.5007 126.104 26.3814 126.402 26.2323C127.223 25.8073 127.871 25.2108 128.333 24.4429C128.796 23.6749 129.034 22.7951 129.034 21.796C129.034 20.6552 128.721 19.6338 128.103 18.7316C127.483 17.8369 126.611 17.1361 125.493 16.629C124.374 16.1295 123.092 15.876 121.661 15.876H111.691V38.3184H121.854C123.36 38.3184 124.703 38.0575 125.888 37.5281C127.066 36.9987 127.983 36.268 128.639 35.3211C129.288 34.3817 129.616 33.308 129.616 32.1001C129.616 30.9892 129.363 29.9976 128.848 29.1177C128.333 28.238 127.625 27.5595 126.708 27.0748L126.7 27.0822ZM116.515 19.6561H120.922C121.533 19.6561 122.07 19.768 122.54 19.9842C123.01 20.2004 123.375 20.5136 123.636 20.9236C123.897 21.3263 124.031 21.8035 124.031 22.3478C124.031 22.892 123.897 23.4065 123.636 23.8315C123.375 24.2565 123.01 24.5771 122.54 24.8082C122.07 25.0394 121.533 25.1512 120.922 25.1512H116.515V19.6487V19.6561ZM124.106 33.2335C123.823 33.6584 123.42 33.9865 122.906 34.2177C122.384 34.4488 121.795 34.5606 121.116 34.5606H116.515V28.8046H121.116C121.78 28.8046 122.369 28.9314 122.891 29.1774C123.405 29.4234 123.815 29.7664 124.098 30.2138C124.381 30.6611 124.531 31.1682 124.531 31.7422C124.531 32.3163 124.389 32.8085 124.106 33.2335ZM146.265 29.2595C147.51 28.663 148.472 27.8204 149.158 26.7393C149.844 25.6582 150.187 24.4056 150.187 22.9741C150.187 21.5425 149.851 20.3346 149.181 19.261C148.509 18.1873 147.555 17.3597 146.325 16.7707C145.094 16.1817 143.67 15.8909 142.045 15.8909H132.218V38.3333H137.191V30.1616H140.427L144.983 38.3333H150.656L145.527 29.5577C145.781 29.4682 146.034 29.3712 146.273 29.2595H146.265ZM144.655 24.674C144.378 25.1437 143.984 25.5091 143.469 25.7551C142.954 26.0087 142.351 26.1354 141.657 26.1354H137.184V19.9245H141.657C142.351 19.9245 142.954 20.0513 143.469 20.2973C143.984 20.5434 144.378 20.9087 144.655 21.371C144.93 21.8333 145.072 22.3851 145.072 23.0113C145.072 23.6376 144.93 24.1893 144.655 24.6591V24.674ZM160.074 15.8909L152.058 38.3333H157.106L158.694 33.3826H167.015L168.715 38.3333H173.665L165.456 15.8909H160.074ZM159.82 29.6248L162.399 21.7066L162.706 20.2675L163.011 21.7066L165.77 29.6248H159.82ZM175.313 38.3333H180.443V15.8909H175.313V38.3333ZM198.539 31.0712L188.883 15.8909H184.044V38.3333H188.578V23.153L198.181 38.3333H203.072V15.8909H198.539V31.0712ZM222.144 28.5586C221.66 27.6266 220.973 26.8437 220.101 26.2099C219.229 25.5762 218.223 25.1586 217.089 24.9424L213.272 24.1595C212.675 24.0179 212.198 23.7718 211.848 23.414C211.497 23.0561 211.318 22.6087 211.318 22.0794C211.318 21.5947 211.445 21.1771 211.706 20.8193C211.96 20.4614 212.325 20.1855 212.787 19.9842C213.25 19.7829 213.786 19.686 214.397 19.686C215.009 19.686 215.561 19.7904 216.03 19.9991C216.5 20.2078 216.865 20.4987 217.126 20.8789C217.388 21.2592 217.522 21.6842 217.522 22.1688H222.495C222.465 20.864 222.1 19.7083 221.414 18.7092C220.728 17.7027 219.766 16.9198 218.543 16.3531C217.32 15.7865 215.919 15.5032 214.352 15.5032C212.787 15.5032 211.4 15.794 210.185 16.383C208.97 16.972 208.015 17.7847 207.337 18.8286C206.659 19.8723 206.316 21.0579 206.316 22.3925C206.316 23.4736 206.531 24.4503 206.972 25.3152C207.411 26.1876 208.03 26.9108 208.828 27.4849C209.633 28.059 210.558 28.4616 211.617 28.6853L215.658 29.5204C216.321 29.6769 216.843 29.9678 217.231 30.3852C217.618 30.8028 217.805 31.3173 217.805 31.9436C217.805 32.4431 217.663 32.898 217.38 33.2931C217.097 33.6882 216.701 33.9939 216.194 34.2102C215.687 34.4264 215.091 34.5308 214.405 34.5308C213.719 34.5308 213.071 34.4115 212.511 34.1729C211.952 33.9343 211.519 33.5913 211.214 33.144C210.901 32.7041 210.752 32.1896 210.752 31.6155H205.779C205.801 33.0172 206.173 34.2475 206.912 35.3211C207.642 36.3873 208.649 37.2224 209.931 37.8189C211.214 38.4154 212.683 38.7136 214.338 38.7136C215.993 38.7136 217.484 38.4079 218.767 37.7965C220.057 37.1851 221.056 36.3426 221.779 35.2689C222.502 34.1953 222.86 32.9799 222.86 31.623C222.86 30.512 222.614 29.4906 222.129 28.5511L222.144 28.5586Z" fill="black"/>
<path d="M15.229 2.89487L2.74033 15.3836C0.988314 17.1356 0 19.5165 0 22.0023V44.3292C0 46.3957 1.67714 48.0728 3.74361 48.0728H26.0705C28.5563 48.0728 30.9297 47.0845 32.6892 45.3325L45.1779 32.8438C46.93 31.0918 47.9183 28.7108 47.9183 26.2251V3.89816C47.9183 1.83168 46.2411 0.154541 44.1747 0.154541H21.8477C19.362 0.154541 16.9885 1.14286 15.229 2.89487Z" fill="url(#paint0_linear_5965_3268)"/>
<path d="M35.9372 12.134H5.98828V42.083H35.9372V12.134Z" fill="black"/>
<path d="M22.4607 35.344H9.73242V38.3389H22.4607V35.344Z" fill="white"/>
</g>
<defs>
<linearGradient id="paint0_linear_5965_3268" x1="0.636415" y1="47.1144" x2="46.885" y2="1.50973" gradientUnits="userSpaceOnUse">
<stop stop-color="#FF9419"/>
<stop offset="0.43" stop-color="#FF021D"/>
<stop offset="0.99" stop-color="#E600FF"/>
</linearGradient>
<clipPath id="clip0_5965_3268">
<rect width="223.119" height="47.9183" fill="white" transform="translate(0 0.154297)"/>
</clipPath>
</defs>
</svg>
