<svg width="203" height="81" viewBox="0 0 203 81" fill="none" xmlns="http://www.w3.org/2000/svg">
<path d="M128.433 11.3737C126.897 11.6758 127.293 14.1002 129.072 13.8601C130.811 13.6199 130.56 10.9477 128.433 11.3737ZM63.3054 20.1573V21.9388H67.9071C67.8586 27.8721 59.5852 28.6854 57.5471 23.2711C56.6413 20.8622 56.8193 17.2604 58.5985 15.231C61.2512 12.2025 66.5241 13.0777 67.6159 16.9661H69.7672C68.2225 10.2196 58.3478 9.67737 55.7517 16.1683C53.4711 21.8924 56.2774 29.2585 63.645 28.6776C66.6131 28.4452 69.8642 25.9279 69.8642 22.9225V20.1573H63.3054ZM89.8563 17.2062C89.6298 17.4696 89.5166 17.9498 89.1688 18.004V16.0366H87.3087V28.4917H89.1688V20.9551C89.1688 20.2193 89.5247 19.0884 90.0504 18.5152C91.3363 17.1442 94.0374 17.1287 95.1292 18.7166C95.2667 18.918 95.6388 19.8243 95.6388 20.0179V28.4917H97.5959V19.925C97.5959 16.1141 92.3391 14.3403 89.8563 17.2062ZM122.311 21.9543C120.774 21.3657 116.068 21.172 117.24 18.6547C117.847 17.3611 120.41 17.1442 121.575 17.7949C122.157 18.1202 122.408 18.7399 122.837 19.2046L124.438 18.6934C123.29 14.3558 114.701 15.1381 115.146 19.8165C115.445 22.9613 119.343 22.6669 121.526 23.55C123.12 24.1928 123.144 25.9356 121.632 26.6947C119.949 27.5467 117.062 27.1904 116.593 25.1301L114.741 25.4941C115.243 28.5304 119.181 29.2276 121.801 28.4452C125.328 27.3918 125.991 23.3718 122.311 21.9543ZM142.837 23.976C142.093 21.6368 138.583 21.6755 136.642 20.9087C134.604 20.1031 135.024 18.1357 137.006 17.6012C138.825 17.1133 140.176 17.6245 141.058 19.2046L142.764 18.7476C141.785 16.1915 139.189 15.4015 136.553 16.0366C132.655 16.9816 132.089 21.3192 136.108 22.636C137.556 23.1084 142.287 23.3873 140.726 25.9356C139.626 27.7404 135.259 27.4925 134.822 25.1301L132.97 25.4941C133.844 30.5831 144.543 29.3515 142.837 23.976ZM127.875 16.0366V28.4917H129.832V16.0366H127.875ZM173.698 34.3242C172.024 34.6573 172.534 37.2134 174.418 36.7951C176.124 36.4156 175.591 33.9525 173.698 34.3242ZM54.7812 34.7735V36.555H60.2645V51.45H62.3187V36.555H67.81V34.7735H54.7812ZM80.394 40.3117C78.6876 38.1661 74.2072 38.2203 73.1073 40.9004L72.808 40.9546V34.7735H70.8428V51.45H72.808V43.348C72.808 43.1699 73.1073 42.3411 73.2124 42.1397C74.191 40.1645 77.6686 39.8237 78.8979 41.7369C79.0515 41.9693 79.375 42.829 79.375 43.0614V51.45H81.3322V42.9685C81.3322 42.2171 80.8793 40.9236 80.394 40.3117ZM169.792 49.777C168.999 49.7072 168.005 49.9861 167.487 49.2193C167.406 49.0953 167.164 48.5067 167.164 48.406V40.5828H170.002V38.9872H167.164V35.9896H165.206V38.9872H163.241V40.5828H165.206V48.6848C165.206 49.1728 165.57 49.9783 165.894 50.3734C166.832 51.512 168.838 51.9535 170.188 51.3029L169.792 49.777ZM101.85 39.7308C101.534 40.0328 101.421 40.3814 101.195 40.699C101.114 40.8074 101.114 40.9004 100.928 40.8616V38.9872H99.0678V51.45H101.025V42.8755C101.025 42.6277 101.437 41.977 101.615 41.7524C102.562 40.6138 104.114 40.3272 105.53 40.7687L106.112 39.235C104.947 38.4062 102.861 38.8013 101.85 39.7308ZM108.716 40.5828C108.522 40.8074 107.883 41.5975 108.247 41.7834C108.433 41.8763 109.719 42.3023 109.873 42.2714C110.455 41.3419 111.369 40.5983 112.541 40.4898C113.941 40.3582 115.469 40.5441 115.946 42.008C116.351 43.2318 116.205 43.774 114.862 44.0219C111.628 44.6183 106.961 44.1381 107.729 48.832C108.223 51.8063 112.994 52.5809 115.137 50.7452C115.437 50.4896 115.582 50.1875 115.841 49.9241C115.922 49.8312 115.922 49.7227 116.116 49.7615V51.45H118.073V42.8755C118.073 38.2901 111.239 37.5929 108.716 40.5828ZM116.116 47.2828C116.116 49.8544 111.215 51.1325 109.856 49.0489C109.145 47.9412 109.687 46.7794 110.851 46.2836C112.501 45.5788 114.482 45.9196 116.116 45.176V47.2828ZM129.565 39.1034C127.673 38.4992 125.958 38.7006 124.592 40.1103C124.309 40.4046 124.114 40.9856 123.662 40.9546V38.9872H121.793V56.1362H123.759V49.4826C124.147 49.6066 124.357 50.1565 124.64 50.4663C126.088 52.0232 128.708 52.031 130.487 51.0008C134.499 48.6616 134.24 40.606 129.565 39.1034ZM128.635 49.8854C122.723 51.5895 122.012 41.0708 126.872 40.5131C132.533 39.8624 132.517 48.7623 128.635 49.8854ZM181.462 49.0644C179.319 46.9808 179.578 41.6207 182.861 40.6525C184.657 40.118 186.719 40.7687 187.148 42.6432H189.113C188.652 38.9794 183.896 37.8563 180.928 39.6456C177.143 41.9151 177.2 48.9404 181.171 51.0318C184.147 52.5964 188.66 51.4191 189.113 47.887H187.148C186.614 50.2959 183.136 50.6832 181.462 49.0644ZM200.864 45.9738C199.295 44.2233 195.081 44.5331 194.159 43.1079C193.173 41.5742 195.114 40.4743 196.513 40.3969C198.057 40.3117 198.939 40.9236 199.659 42.1629L201.341 41.6594C199.974 36.9888 190.552 38.3675 192.178 43.5029C192.873 45.7259 196.019 45.7647 197.904 46.3688C198.575 46.578 199.279 46.8336 199.521 47.5384C200.37 50.0326 195.429 50.9775 193.925 49.0411C193.682 48.7235 193.593 48.3905 193.359 48.0806L191.668 48.4602C192.129 52.5732 199.74 52.6816 201.309 49.3897C201.834 48.282 201.705 46.9033 200.864 45.9738ZM158.64 38.9872V47.0969C158.64 47.2596 158.284 48.0419 158.17 48.2356C157.119 49.9551 154.119 50.4586 152.873 48.6693C152.744 48.4912 152.364 47.6391 152.364 47.4687V38.9872H150.407V47.8405C150.407 51.2874 155.178 52.821 157.612 50.5128C157.944 50.1875 158.146 49.746 158.413 49.4129C158.478 49.3355 158.413 49.2425 158.64 49.2967V51.45H160.597V38.9872H158.64ZM173.043 38.9872V51.45H175V38.9872H173.043ZM143.273 39.0182C139.149 37.9725 136.06 40.8152 135.801 44.657C135.493 49.2425 138.607 52.5887 143.573 51.512C145.158 51.1712 146.557 50.0326 147.075 48.5454L145.174 48.0729C144.406 49.9938 142.068 50.4431 140.192 49.7382C138.494 49.1031 137.766 47.4842 137.766 45.8266H147.269C147.463 42.953 146.5 39.8315 143.273 39.0182ZM137.766 44.2388C138.017 39.359 145.255 39.0879 145.312 44.2388H137.766ZM95.9299 45.8266C96.0269 43.3558 95.4285 40.4898 92.8648 39.3435C86.0148 36.2917 81.9306 45.3154 85.9824 49.8622C88.4733 52.6506 94.4742 52.364 95.6388 48.5454L93.8272 48.0729C91.9347 51.8063 86.0148 49.8931 86.4272 45.8266H95.9299ZM93.9323 44.0451L93.8272 44.2388H86.4272C86.6051 39.4829 93.714 39.0569 93.9323 44.0451ZM80.8388 16.269C73.6087 13.4108 70.0098 23.5345 74.8218 27.4615C77.4179 29.5839 82.8607 29.1036 83.8797 25.5871L82.0196 25.1223C81.3645 27.051 78.8817 27.4383 77.0944 26.7877C75.4203 26.1758 74.6034 24.5182 74.6681 22.8761H84.1708C84.2598 20.258 83.6209 17.3689 80.8388 16.269ZM74.6681 21.2805C74.7975 16.3929 82.2784 16.1296 82.1166 21.2805H74.6681ZM112.194 22.8761C112.339 19.9714 111.458 16.8964 108.198 16.0598C99.4884 13.8291 97.9598 27.8101 105.78 28.6776C108.255 28.9565 111.215 28.1277 111.903 25.5871L110.099 25.1146C108.182 28.848 102.303 26.9271 102.691 22.8761H112.194ZM106.169 17.5315C107.657 17.4308 108.91 17.8801 109.662 19.1581C109.945 19.6384 110.236 20.5214 110.212 21.0713C110.212 21.1875 110.18 21.2107 110.091 21.2805H102.691C102.699 19.437 104.203 17.6555 106.169 17.5315Z" fill="#2D45FE"/>
<path d="M39.0292 24.6731C36.789 23.9295 34.4274 23.6429 32.0902 23.2556C31.888 20.5524 32.4946 17.973 31.2491 15.4402C28.3376 9.48373 19.5466 9.02673 15.9397 14.6346C14.0877 17.5083 14.7023 20.5833 14.6052 23.8056C9.79324 24.4175 1.22061 25.7033 1.6735 31.9153C1.81908 34.0144 3.58213 35.6333 5.3937 36.6015C8.17577 38.0887 11.4754 38.6541 14.6052 39.0879C14.6699 42.7671 14.023 46.2139 16.6675 49.2425C20.7517 53.9287 28.7177 52.8907 31.3138 47.3216C32.5754 44.6028 31.8557 41.52 32.0578 38.6231C36.1177 38.1042 43.9301 36.9655 45.0543 32.3568C46.0571 28.2284 42.6362 25.8737 39.0292 24.6731ZM43.1214 32.109C41.9649 35.4784 34.5892 36.4931 31.4108 36.8339C27.8928 37.2057 24.3182 37.3296 20.784 37.3916C20.7759 37.6472 20.7517 39.2428 20.9377 39.2738L30.1896 38.8013V44.1923C30.1896 48.9869 24.1403 51.907 19.8701 49.4671C18.3982 48.6229 16.5705 46.3534 16.5705 44.657V28.8713H14.6052V37.2057C13.5215 37.105 12.4378 36.9268 11.3703 36.6944C8.32134 36.0361 2.28814 34.2468 3.78431 30.1803C4.7548 27.539 9.66385 26.4314 12.2356 25.9976C16.7727 25.223 21.4795 25.1611 26.0732 24.9364V23.062L16.5705 23.6197V18.2364C16.5705 16.5401 18.3982 14.2706 19.8701 13.4263C24.1403 10.9864 30.1896 13.9065 30.1896 18.7011V34.0222H32.0498V25.2153C33.2952 25.2773 34.6296 25.4864 35.8508 25.7497C38.8674 26.3849 44.4801 28.1509 43.1214 32.109Z" fill="#2D45FE"/>
<path d="M69.7683 16.9661H67.609C66.5252 13.0777 61.2523 12.2025 58.5915 15.231C56.8123 17.2604 56.6344 20.8622 57.5401 23.2711C59.5782 28.6854 67.8516 27.8798 67.9001 21.9388H63.2984V20.1573H69.8653V22.9225C69.8653 25.9279 66.6061 28.4452 63.638 28.6854C56.2785 29.2663 53.4641 21.8924 55.7528 16.176C58.3489 9.67737 68.2155 10.2196 69.7683 16.9738V16.9661Z" fill="#2D45FE"/>
<path d="M129.569 39.1033C127.676 38.4991 125.962 38.7005 124.595 40.1102C124.312 40.4046 124.118 40.9855 123.665 40.9545V38.9871H121.797V56.1361H123.762V49.4826C124.15 49.6065 124.361 50.1564 124.644 50.4663C126.091 52.0232 128.712 52.0309 130.491 51.0007C134.502 48.6615 134.243 40.606 129.569 39.1033ZM128.639 49.8853C122.727 51.5894 122.015 41.0707 126.876 40.513C132.537 39.8624 132.521 48.7622 128.639 49.8853Z" fill="#2D45FE"/>
<path d="M108.719 40.5828C108.525 40.8074 107.886 41.5975 108.25 41.7834C108.436 41.8764 109.722 42.3024 109.876 42.2714C110.458 41.3419 111.372 40.5983 112.544 40.4899C113.944 40.3582 115.472 40.5441 115.949 42.008C116.354 43.2319 116.208 43.7741 114.866 44.0219C111.631 44.6183 106.964 44.1381 107.733 48.832C108.226 51.8064 112.997 52.5809 115.141 50.7452C115.44 50.4896 115.585 50.1875 115.844 49.9242C115.925 49.8312 115.925 49.7228 116.119 49.7615V51.4501H118.076V42.8756C118.076 38.2901 111.242 37.593 108.719 40.5828ZM116.119 47.2829C116.119 49.8544 111.218 51.1325 109.859 49.0489C109.148 47.9413 109.69 46.7794 110.854 46.2837C112.504 45.5788 114.485 45.9196 116.119 45.176V47.2829Z" fill="#2D45FE"/>
<path d="M72.8087 34.7657V40.9468L73.1079 40.8926C74.1997 38.2203 78.6882 38.1583 80.3947 40.3039C80.8799 40.9158 81.3328 42.2094 81.3328 42.9684V51.45H79.3757V43.0614C79.3757 42.829 79.0522 41.9692 78.9066 41.7291C77.6692 39.8159 74.1997 40.1567 73.2131 42.1319C73.1079 42.3333 72.8087 43.1621 72.8087 43.3402V51.4422H70.8516V34.7657H72.8087Z" fill="#2D45FE"/>
<path d="M152.371 38.9872V47.4688C152.371 47.6392 152.751 48.4912 152.881 48.6694C154.126 50.4586 157.127 49.9552 158.178 48.2356C158.291 48.042 158.647 47.2596 158.647 47.0892V38.9872H160.604V51.4501H158.647V49.2968C158.421 49.2425 158.485 49.3355 158.421 49.413C158.154 49.746 157.952 50.1875 157.612 50.5128C155.186 52.8211 150.414 51.2874 150.414 47.8406V38.9872H152.371Z" fill="#2D45FE"/>
<path d="M97.5997 28.4916H95.6425V20.01C95.6425 19.8241 95.2705 18.9179 95.133 18.7165C94.0412 17.1209 91.34 17.1364 90.0541 18.5151C89.5204 19.0883 89.1726 20.2114 89.1726 20.9473V28.4916H87.3125V16.0287H89.1726V17.9961C89.5204 17.9419 89.6336 17.4617 89.86 17.1983C92.3429 14.3324 97.5997 16.1062 97.5997 19.9171V28.4916Z" fill="#2D45FE"/>
<path d="M191.672 48.4524L193.37 48.0806C193.605 48.3827 193.694 48.7235 193.936 49.0411C195.433 50.9775 200.374 50.0248 199.525 47.5384C199.282 46.8336 198.579 46.5779 197.907 46.3611C196.023 45.7646 192.877 45.7182 192.173 43.5029C190.548 38.3597 199.97 36.9887 201.344 41.6594L199.662 42.1629C198.942 40.9158 198.061 40.3117 196.516 40.3969C195.125 40.4743 193.176 41.5742 194.171 43.1079C195.093 44.5331 199.306 44.2232 200.875 45.9738C201.708 46.9033 201.846 48.282 201.32 49.3896C199.751 52.6816 192.141 52.5731 191.68 48.4602L191.672 48.4524Z" fill="#2D45FE"/>
<path d="M114.742 25.4942L116.594 25.1301C117.063 27.1905 119.942 27.5468 121.633 26.6948C123.145 25.9357 123.121 24.1929 121.528 23.55C119.336 22.667 115.446 22.9536 115.147 19.8166C114.702 15.1382 123.291 14.3558 124.439 18.6934L122.838 19.2047C122.417 18.7399 122.158 18.1203 121.576 17.7949C120.42 17.1443 117.848 17.3612 117.241 18.6547C116.069 21.1721 120.775 21.3657 122.312 21.9544C125.992 23.3719 125.329 27.3919 121.794 28.4453C119.174 29.2276 115.236 28.5305 114.742 25.4942Z" fill="#2D45FE"/>
<path d="M142.763 18.7476L141.056 19.2046C140.175 17.6245 138.816 17.1133 137.005 17.6013C135.023 18.1357 134.603 20.1031 136.633 20.9087C138.663 21.7142 142.084 21.6368 142.828 23.976C144.534 29.3515 133.842 30.5831 132.961 25.4942L134.813 25.1224C135.25 27.4848 139.617 27.7327 140.725 25.9279C142.286 23.3796 137.555 23.1007 136.107 22.6282C132.087 21.3115 132.654 16.9739 136.552 16.0366C139.188 15.4015 141.784 16.1838 142.763 18.7476Z" fill="#2D45FE"/>
<path d="M67.81 34.7657V36.5472H62.3268V51.45H60.2645V36.5472H54.7812V34.7657H67.81Z" fill="#2D45FE"/>
<path d="M189.113 42.6355H187.156C186.719 40.761 184.657 40.1104 182.87 40.6448C179.586 41.6208 179.328 46.9808 181.471 49.0644C183.137 50.6833 186.622 50.296 187.156 47.8871H189.113C188.66 51.4191 184.156 52.5965 181.171 51.0241C177.201 48.9328 177.144 41.9074 180.929 39.6379C183.905 37.8486 188.652 38.9795 189.113 42.6355Z" fill="#2D45FE"/>
<path d="M167.164 35.9896V38.9872H170.003V40.5828H167.164V48.406C167.164 48.5067 167.407 49.0953 167.496 49.2193C168.013 49.9861 169 49.715 169.801 49.777L170.197 51.3029C168.846 51.9535 166.841 51.512 165.902 50.3734C165.579 49.9784 165.215 49.1805 165.215 48.6926V40.5905H163.258V38.9949H165.215V35.9973H167.172L167.164 35.9896Z" fill="#2D45FE"/>
<path d="M100.93 40.8616C101.125 40.9003 101.116 40.8074 101.197 40.699C101.424 40.3814 101.537 40.0328 101.852 39.7385C102.855 38.8013 104.95 38.4062 106.114 39.235L105.532 40.7687C104.117 40.3272 102.564 40.6138 101.618 41.7524C101.44 41.9693 101.027 42.6276 101.027 42.8755V51.45H99.0703V38.9872H100.93V40.8616Z" fill="#2D45FE"/>
<path d="M129.832 16.0288H127.875V28.4917H129.832V16.0288Z" fill="#2D45FE"/>
<path d="M175.004 38.9872H173.047V51.4501H175.004V38.9872Z" fill="#2D45FE"/>
<path d="M173.699 34.3242C175.584 33.9525 176.126 36.4156 174.419 36.7951C172.527 37.2134 172.017 34.6651 173.699 34.3242Z" fill="#2D45FE"/>
<path d="M128.434 11.3659C130.561 10.9399 130.811 13.6122 129.073 13.8523C127.334 14.0924 126.897 11.668 128.434 11.3659Z" fill="#2D45FE"/>
</svg>
